<svg width="18" height="22" viewBox="0 0 18 22" fill="none" xmlns="http://www.w3.org/2000/svg">
<g clip-path="url(#clip0_1_2792)">
<path d="M8.99614 1.51416C4.56185 1.51416 2.63519 5.5294 2.63519 8.18368C2.63519 10.1675 2.9228 9.58368 1.82471 12.0037C0.483761 15.4523 5.87614 16.8618 8.99614 16.8618C12.1152 16.8618 17.5076 15.4523 16.1676 12.0037C15.0695 9.58368 15.3571 10.1675 15.3571 8.18368C15.3571 5.5294 13.4295 1.51416 8.99614 1.51416Z" fill="#F9D8D8"/>
<path fill-rule="evenodd" clip-rule="evenodd" d="M8.99614 0.76416C6.52145 0.76416 4.72163 1.89651 3.56018 3.3939C2.41704 4.86768 1.88519 6.69875 1.88519 8.18368C1.88519 8.60993 1.89814 8.92637 1.90797 9.16649L1.90806 9.16852C1.91004 9.21712 1.91191 9.26259 1.91349 9.30521C1.92316 9.56347 1.9212 9.68756 1.90134 9.81049C1.85617 10.0901 1.71315 10.4345 1.14174 11.6938C1.13604 11.7064 1.13069 11.7191 1.1257 11.7319C0.712591 12.7943 0.804691 13.7717 1.29558 14.6C1.764 15.3904 2.5515 15.9724 3.40277 16.3971C5.10509 17.2463 7.35569 17.6118 8.99614 17.6118C10.6361 17.6118 12.8865 17.2463 14.5888 16.3971C15.4401 15.9724 16.2276 15.3905 16.6962 14.6001C17.1871 13.7719 17.2795 12.7945 16.8667 11.7321C16.8617 11.7192 16.8563 11.7064 16.8506 11.6938C16.2792 10.4345 16.1362 10.0901 16.091 9.81049C16.0711 9.68756 16.0692 9.56348 16.0788 9.30521C16.0804 9.262 16.0823 9.21586 16.0844 9.16649C16.0942 8.92636 16.1071 8.60992 16.1071 8.18368C16.1071 6.69867 15.575 4.86761 14.4318 3.39386C13.2702 1.89654 11.4704 0.76416 8.99614 0.76416ZM3.38519 8.18368C3.38519 7.01433 3.81667 5.51064 4.74543 4.31323C5.65589 3.13943 7.03654 2.26416 8.99614 2.26416C10.9553 2.26416 12.3359 3.1394 13.2466 4.31327C14.1755 5.51071 14.6071 7.01441 14.6071 8.18368C14.6071 8.57679 14.5956 8.86077 14.5858 9.09983C14.5837 9.15147 14.5817 9.20102 14.5799 9.24912C14.5699 9.51496 14.5647 9.76814 14.6102 10.0497C14.6947 10.5728 14.9516 11.139 15.4656 12.2716L15.4756 12.2937C15.7242 12.9463 15.6443 13.433 15.4058 13.8352C15.1427 14.2791 14.6385 14.6961 13.9192 15.0549C12.4806 15.7726 10.4752 16.1118 8.99614 16.1118C7.51659 16.1118 5.511 15.7725 4.07237 15.0549C3.35316 14.6961 2.849 14.2791 2.58599 13.8353C2.34766 13.4331 2.26783 12.9465 2.51671 12.2938L2.52673 12.2717L2.52685 12.2714C3.04075 11.1389 3.29764 10.5727 3.38213 10.0497C3.42763 9.76814 3.42239 9.51496 3.41245 9.24912C3.4108 9.20504 3.40896 9.15973 3.40705 9.11271L3.40652 9.09982C3.39677 8.86076 3.38519 8.57678 3.38519 8.18368ZM7.24533 19.0125C6.96939 18.7036 6.49527 18.6769 6.18635 18.9528C5.87743 19.2287 5.85069 19.7029 6.12663 20.0118C7.73439 21.8117 10.2753 21.7879 11.8648 20.0124C12.1411 19.7038 12.1148 19.2297 11.8062 18.9534C11.4976 18.6771 11.0235 18.7033 10.7472 19.0119C9.74809 20.1279 8.25089 20.1383 7.24533 19.0125Z" fill="#E23E3E"/>
</g>
<defs>
<clipPath id="clip0_1_2792">
<rect width="16.2629" height="20.5888" fill="white" transform="translate(0.864563 0.76416)"/>
</clipPath>
</defs>
</svg>
