<svg width="22" height="22" viewBox="0 0 22 22" fill="none" xmlns="http://www.w3.org/2000/svg">
<rect opacity="0.01" x="0.333374" y="0.333374" width="21.3333" height="21.3333" fill="white"/>
<path fill-rule="evenodd" clip-rule="evenodd" d="M10.9736 1.88892C9.55018 1.88892 8.36739 1.93966 7.40789 2.13602C6.43632 2.33486 5.6356 2.69432 5.03402 3.35335C4.43954 4.00461 4.10877 4.87329 3.91917 5.95038C3.72992 7.02556 3.67051 8.37546 3.67051 10.048C3.67051 10.6935 3.66942 11.2995 3.66839 11.868L3.66839 11.8681C3.66353 14.5567 3.66019 16.4051 3.78141 17.6106C3.85374 18.3299 3.97846 18.9404 4.2527 19.3789C4.40018 19.6147 4.59605 19.8101 4.85038 19.9402C5.10015 20.068 5.36386 20.1111 5.61629 20.1111C6.19298 20.1111 6.75216 19.7939 7.20353 19.4803C7.64372 19.1745 8.10705 18.7785 8.54529 18.404L8.54662 18.4029L8.65044 18.3142C9.1348 17.9007 9.58974 17.5191 10.0167 17.2388C10.4595 16.948 10.7708 16.8365 10.9736 16.8365C11.1764 16.8365 11.4877 16.948 11.9306 17.2388C12.3575 17.5191 12.8124 17.9007 13.2968 18.3142L13.4006 18.4029L13.4025 18.4045C13.8406 18.7789 14.3037 19.1746 14.7437 19.4803C15.1951 19.7939 15.7543 20.1111 16.331 20.1111C16.5833 20.1111 16.8471 20.068 17.0968 19.9402C17.3512 19.8101 17.5471 19.6147 17.6945 19.3789C17.9688 18.9404 18.0935 18.3299 18.1658 17.6106C18.287 16.4058 18.2837 14.559 18.2789 11.8732L18.2789 11.8681C18.2778 11.2996 18.2768 10.6935 18.2768 10.048C18.2768 8.37546 18.2173 7.02556 18.028 5.95038C17.8384 4.87329 17.5077 4.00461 16.9132 3.35335C16.3116 2.69432 15.5109 2.33486 14.5393 2.13602C13.5799 1.93966 12.3971 1.88892 10.9736 1.88892ZM5.00384 10.048C5.00384 8.3886 5.06432 7.13595 5.23232 6.18153C5.39998 5.22904 5.66382 4.64111 6.01878 4.25226C6.36664 3.87117 6.8702 3.60703 7.67522 3.44229C8.4923 3.27507 9.5584 3.22225 10.9736 3.22225C12.3888 3.22225 13.455 3.27507 14.272 3.44229C15.077 3.60703 15.5806 3.87117 15.9285 4.25226C16.2834 4.64111 16.5472 5.22904 16.7149 6.18153C16.8829 7.13595 16.9434 8.3886 16.9434 10.048C16.9434 10.7093 16.9444 11.3251 16.9454 11.8986C16.95 14.5882 16.9529 16.3458 16.8392 17.4772C16.7691 18.1745 16.6627 18.5143 16.564 18.6719C16.5251 18.7342 16.4992 18.7483 16.4896 18.7532C16.4754 18.7605 16.4332 18.7778 16.331 18.7778C16.1987 18.7778 15.9368 18.6857 15.5045 18.3854C15.1215 18.1192 14.7071 17.7653 14.2522 17.3767L14.2515 17.3761L14.1624 17.3001C13.6877 16.8949 13.1706 16.4579 12.6624 16.1242C12.17 15.8009 11.5828 15.5031 10.9736 15.5031C10.3644 15.5031 9.77728 15.8009 9.28491 16.1242C8.77662 16.4579 8.25955 16.8949 7.7848 17.3001L7.6957 17.3762L7.69383 17.3778C7.2394 17.7659 6.82543 18.1194 6.44272 18.3854C6.01041 18.6857 5.74849 18.7778 5.61629 18.7778C5.51405 18.7778 5.47179 18.7605 5.45766 18.7532C5.44807 18.7483 5.42209 18.7342 5.38315 18.6719C5.28456 18.5143 5.17817 18.1745 5.10806 17.4772C4.99429 16.3459 4.99727 14.5884 5.00183 11.8992L5.00183 11.8987C5.0028 11.3252 5.00384 10.7093 5.00384 10.048ZM7.92672 7.8602C7.55853 7.8602 7.26005 8.15868 7.26005 8.52687C7.26005 8.89506 7.55853 9.19354 7.92672 9.19354H14.0201C14.3882 9.19354 14.6867 8.89506 14.6867 8.52687C14.6867 8.15868 14.3882 7.8602 14.0201 7.8602H7.92672Z" fill="#C1C1C1"/>
</svg>
