<svg width="12" height="13" viewBox="0 0 12 13" fill="none" xmlns="http://www.w3.org/2000/svg">
<path d="M9.55007 8.26478C9.39467 8.42332 9.32333 8.65258 9.35873 8.87738L9.892 11.9846C9.937 12.2479 9.83147 12.5144 9.62207 12.6666C9.41687 12.8245 9.14393 12.8434 8.92013 12.7172L6.26311 11.2583C6.17072 11.2065 6.06813 11.1787 5.96315 11.1756H5.80057C5.74417 11.1844 5.68898 11.2034 5.63859 11.2324L2.98093 12.6982C2.84955 12.7676 2.70077 12.7923 2.55499 12.7676C2.19984 12.6969 1.96287 12.3408 2.02106 11.965L2.55499 8.85785C2.59039 8.63112 2.51899 8.40058 2.36362 8.23958L0.1973 6.02918C0.0161234 5.84414 -0.0468684 5.56626 0.0359208 5.31554C0.11631 5.06545 0.321483 4.88294 0.569251 4.84188L3.55086 4.38655C3.77763 4.36192 3.97681 4.21666 4.07879 4.00194L5.39262 1.16634C5.42382 1.10319 5.46401 1.04508 5.51261 0.995825L5.5666 0.951618C5.59479 0.918777 5.62719 0.891621 5.66319 0.869518L5.72858 0.844256L5.83057 0.800049H6.08313C6.3087 0.824679 6.50727 0.966775 6.61106 1.17897L7.94227 4.00194C8.03827 4.20846 8.22487 4.35181 8.4402 4.38655L11.4218 4.84188C11.6738 4.87978 11.8844 5.06292 11.9677 5.31554C12.0463 5.56878 11.9785 5.84666 11.7938 6.02918L9.55007 8.26478Z" fill="#181818"/>
</svg>
