<svg width="20" height="20" viewBox="0 0 20 20" fill="none" xmlns="http://www.w3.org/2000/svg">
<rect opacity="0.01" width="20" height="20" fill="white"/>
<path fill-rule="evenodd" clip-rule="evenodd" d="M10.7422 4.35667C10.5061 4.60942 10.5069 5.01826 10.7441 5.26992L14.5934 9.35411H3.93943L3.85719 9.36C3.56137 9.40277 3.33337 9.67297 3.33337 9.99991C3.33337 10.3566 3.60471 10.6457 3.93943 10.6457H14.5922L10.744 14.7298L10.6852 14.8021C10.5087 15.0545 10.5275 15.4133 10.7423 15.6431C10.9784 15.8958 11.3622 15.8966 11.5993 15.645L16.4741 10.4719C16.586 10.3605 16.6583 10.2044 16.6659 10.0303C16.6737 9.85447 16.6145 9.67584 16.4881 9.54177L11.5993 4.35467L11.5312 4.29234C11.2936 4.10526 10.9569 4.12684 10.7422 4.35667Z" fill="#181818"/>
</svg>
